<svg width="129" height="44" viewBox="0 0 129 44" fill="none" xmlns="http://www.w3.org/2000/svg">
<rect width="129" height="44" fill="transparent"/>
<g clip-path="url(#clip0_0_1)">
<mask id="mask0_0_1" style="mask-type:luminance" maskUnits="userSpaceOnUse" x="0" y="0" width="129" height="44">
<path d="M0 0.000404418H128.361V43.6737H0V0.000404418Z" fill="white"/>
</mask>
<g mask="url(#mask0_0_1)">
<path d="M24.9961 14.7223C24.9961 11.1383 27.7615 8.59561 31.6321 8.59561C34.1308 8.59561 36.1001 9.67961 36.9628 11.6249L34.2855 13.0636C33.6441 11.9356 32.6935 11.4263 31.6095 11.4263C29.8628 11.4263 28.4908 12.6436 28.4908 14.7223C28.4908 16.8009 29.8628 18.0183 31.6095 18.0183C32.6935 18.0183 33.6441 17.5316 34.2855 16.3809L36.9628 17.8409C36.1001 19.7436 34.1308 20.8489 31.6321 20.8489C27.7615 20.8489 24.9961 18.3049 24.9961 14.7223Z" fill="#29265B"/>
<path d="M37.4708 14.7223C37.4708 11.1383 40.2361 8.59561 44.1068 8.59561C46.6055 8.59561 48.5748 9.67961 49.4375 11.6249L46.7601 13.0636C46.1188 11.9356 45.1681 11.4263 44.0841 11.4263C42.3375 11.4263 40.9655 12.6436 40.9655 14.7223C40.9655 16.8009 42.3375 18.0183 44.0841 18.0183C45.1681 18.0183 46.1188 17.5316 46.7601 16.3809L49.4375 17.8409C48.5748 19.7436 46.6055 20.8489 44.1068 20.8489C40.2361 20.8489 37.4708 18.3049 37.4708 14.7223Z" fill="#29265B"/>
<path d="M53.3736 13.6825H59.2349C58.9923 12.1785 57.8643 11.2052 56.3149 11.2052C54.7443 11.2052 53.6163 12.1559 53.3736 13.6825ZM62.4203 15.6959H53.4176C53.7496 17.1772 55.0109 18.0839 56.8243 18.0839C58.0856 18.0839 58.9923 17.7079 59.8096 16.9345L61.6456 18.9252C60.5403 20.1852 58.8816 20.8492 56.7349 20.8492C52.6216 20.8492 49.9456 18.2612 49.9456 14.7225C49.9456 11.1612 52.6656 8.59588 56.2936 8.59588C59.7883 8.59588 62.4869 10.9399 62.4869 14.7665C62.4869 15.0319 62.4429 15.4079 62.4203 15.6959Z" fill="#29265B"/>
<path d="M64.344 4.26041H67.7947V20.6724H64.344V4.26041Z" fill="#29265B"/>
<path d="M73.1025 13.6825H78.9639C78.7212 12.1785 77.5932 11.2052 76.0439 11.2052C74.4732 11.2052 73.3452 12.1559 73.1025 13.6825ZM82.1492 15.6959H73.1465C73.4785 17.1772 74.7399 18.0839 76.5532 18.0839C77.8145 18.0839 78.7212 17.7079 79.5385 16.9345L81.3745 18.9252C80.2692 20.1852 78.6105 20.8492 76.4639 20.8492C72.3505 20.8492 69.6745 18.2612 69.6745 14.7225C69.6745 11.1612 72.3945 8.59588 76.0225 8.59588C79.5172 8.59588 82.2159 10.9399 82.2159 14.7665C82.2159 15.0319 82.1719 15.4079 82.1492 15.6959Z" fill="#29265B"/>
<path d="M91.4604 8.59521V11.7805C91.1724 11.7579 90.9524 11.7365 90.6857 11.7365C88.7844 11.7365 87.5231 12.7752 87.5231 15.0539V20.6725H84.0724V8.77255H87.3684V10.3432C88.2084 9.19255 89.6244 8.59521 91.4604 8.59521Z" fill="#29265B"/>
<path d="M100.087 16.9119V15.6959H97.7199C96.1052 15.6959 95.5959 16.2932 95.5959 17.0892C95.5959 17.9519 96.3265 18.5265 97.5425 18.5265C98.6932 18.5265 99.6879 17.9959 100.087 16.9119ZM103.537 13.8812V20.6719H100.308V19.1905C99.6665 20.2745 98.4279 20.8492 96.6799 20.8492C93.8932 20.8492 92.2345 19.3012 92.2345 17.2439C92.2345 15.1425 93.7159 13.6825 97.3439 13.6825H100.087C100.087 12.2012 99.2012 11.3385 97.3439 11.3385C96.0825 11.3385 94.7785 11.7585 93.9159 12.4439L92.6772 10.0332C93.9812 9.10388 95.9065 8.59588 97.8079 8.59588C101.436 8.59588 103.537 10.2759 103.537 13.8812Z" fill="#29265B"/>
<path d="M113.888 20.0971C113.18 20.6051 112.14 20.8491 111.079 20.8491C108.269 20.8491 106.633 19.4117 106.633 16.5797V11.6917H104.797V9.03708H106.633V6.13974H110.084V9.03708H113.048V11.6917H110.084V16.5357C110.084 17.5531 110.636 18.1064 111.565 18.1064C112.075 18.1064 112.583 17.9517 112.959 17.6637L113.888 20.0971Z" fill="#29265B"/>
<path d="M117.559 13.6825H123.42C123.178 12.1785 122.05 11.2052 120.5 11.2052C118.93 11.2052 117.802 12.1559 117.559 13.6825ZM126.606 15.6959H117.603C117.935 17.1772 119.195 18.0839 121.01 18.0839C122.27 18.0839 123.178 17.7079 123.995 16.9345L125.831 18.9252C124.726 20.1852 123.067 20.8492 120.92 20.8492C116.807 20.8492 114.131 18.2612 114.131 14.7225C114.131 11.1612 116.851 8.59588 120.479 8.59588C123.974 8.59588 126.672 10.9399 126.672 14.7665C126.672 15.0319 126.628 15.4079 126.606 15.6959Z" fill="#29265B"/>
<path d="M41.7848 26.5383H37.4701V23.9956H49.2181V26.5383H44.9048V37.4769H41.7848V26.5383Z" fill="#1B7BB2"/>
<path d="M51.6067 31.3915H56.7107C56.4987 30.0821 55.516 29.2341 54.168 29.2341C52.8013 29.2341 51.8187 30.0621 51.6067 31.3915ZM59.484 33.1435H51.6453C51.9347 34.4341 53.032 35.2235 54.6107 35.2235C55.7093 35.2235 56.4987 34.8968 57.2107 34.2221L58.8093 35.9555C57.8467 37.0541 56.4013 37.6315 54.5333 37.6315C50.952 37.6315 48.6213 35.3781 48.6213 32.2968C48.6213 29.1955 50.9907 26.9621 54.1493 26.9621C57.192 26.9621 59.5413 29.0035 59.5413 32.3355C59.5413 32.5661 59.5027 32.8941 59.484 33.1435Z" fill="#1B7BB2"/>
<path d="M67.1868 34.2032V33.1445H65.1255C63.7201 33.1445 63.2775 33.6632 63.2775 34.3579C63.2775 35.1085 63.9135 35.6085 64.9721 35.6085C65.9735 35.6085 66.8401 35.1472 67.1868 34.2032ZM70.1908 31.5645V37.4765H67.3801V36.1872C66.8215 37.1299 65.7428 37.6312 64.2215 37.6312C61.7948 37.6312 60.3495 36.2832 60.3495 34.4925C60.3495 32.6619 61.6401 31.3912 64.7988 31.3912H67.1868C67.1868 30.1005 66.4161 29.3499 64.7988 29.3499C63.7015 29.3499 62.5641 29.7165 61.8135 30.3125L60.7348 28.2139C61.8708 27.4045 63.5468 26.9619 65.2028 26.9619C68.3615 26.9619 70.1908 28.4259 70.1908 31.5645Z" fill="#1B7BB2"/>
<path d="M72.0207 32.2965C72.0207 29.1765 74.4273 26.9619 77.798 26.9619C79.974 26.9619 81.6887 27.9059 82.4393 29.6005L80.1087 30.8525C79.5513 29.8699 78.722 29.4272 77.7793 29.4272C76.258 29.4272 75.0633 30.4859 75.0633 32.2965C75.0633 34.1072 76.258 35.1659 77.7793 35.1659C78.722 35.1659 79.5513 34.7419 80.1087 33.7405L82.4393 35.0125C81.6887 36.6685 79.974 37.6312 77.798 37.6312C74.4273 37.6312 72.0207 35.4165 72.0207 32.2965Z" fill="#1B7BB2"/>
<path d="M94.4565 31.5455V37.4775H91.4525V32.0081C91.4525 30.3321 90.6819 29.5615 89.3525 29.5615C87.9085 29.5615 86.8685 30.4481 86.8685 32.3548V37.4775H83.8645V23.1868H86.8685V28.1948C87.6779 27.3855 88.8325 26.9615 90.1619 26.9615C92.6072 26.9615 94.4565 28.3868 94.4565 31.5455Z" fill="#1B7BB2"/>
<path d="M96.94 27.1164H99.944V37.4777H96.94V27.1164ZM96.5746 23.9964C96.5746 23.0524 97.3253 22.3204 98.4426 22.3204C99.56 22.3204 100.311 23.0137 100.311 23.9377C100.311 24.9404 99.56 25.6711 98.4426 25.6711C97.3253 25.6711 96.5746 24.9404 96.5746 23.9964Z" fill="#1B7BB2"/>
<path d="M113.098 31.5455V37.4775H110.094V32.0081C110.094 30.3321 109.324 29.5615 107.994 29.5615C106.55 29.5615 105.51 30.4481 105.51 32.3548V37.4775H102.506V27.1161H105.376V28.3295C106.185 27.4428 107.398 26.9615 108.804 26.9615C111.249 26.9615 113.098 28.3868 113.098 31.5455Z" fill="#1B7BB2"/>
<path d="M123.699 31.9692C123.699 30.4479 122.563 29.4265 120.983 29.4265C119.405 29.4265 118.249 30.4479 118.249 31.9692C118.249 33.4905 119.405 34.5119 120.983 34.5119C122.563 34.5119 123.699 33.4905 123.699 31.9692ZM126.665 27.1159V35.7439C126.665 39.5959 124.585 41.3679 120.849 41.3679C118.885 41.3679 116.978 40.8865 115.765 39.9425L116.959 37.7852C117.845 38.4985 119.289 38.9599 120.618 38.9599C122.737 38.9599 123.661 37.9972 123.661 36.1292V35.6865C122.871 36.5532 121.735 36.9772 120.387 36.9772C117.517 36.9772 115.206 34.9932 115.206 31.9692C115.206 28.9452 117.517 26.9625 120.387 26.9625C121.831 26.9625 123.026 27.4439 123.815 28.4452V27.1159H126.665Z" fill="#1B7BB2"/>
</g>
<path d="M12.9453 3.36308L2.952 20.6524L8.43733 20.6551L16.4573 6.78041C16.6587 6.43374 16.6587 6.00574 16.4587 5.65774L15.1347 3.36441C14.892 2.94308 14.4653 2.73241 14.04 2.73108C13.6147 2.73108 13.1893 2.94174 12.9453 3.36308Z" fill="url(#paint0_linear_0_1)"/>
<path d="M7.63599 12.5497L12.312 20.6577L17.7973 20.6604L10.3813 7.79907L7.63599 12.5497Z" fill="url(#paint1_linear_0_1)"/>
<path d="M14.672 11.3111C14.4827 11.3991 14.4107 11.6191 14.516 11.8004L19.6253 20.6617L22.368 20.6631C23.5867 20.6631 24.3507 19.3444 23.7413 18.2871L19.5773 11.0657L18.5347 9.26174C17.3227 9.9884 16.032 10.6751 14.672 11.3111Z" fill="url(#paint2_linear_0_1)"/>
</g>
<defs>
<linearGradient id="paint0_linear_0_1" x1="2.95209" y1="11.6935" x2="16.6078" y2="11.6935" gradientUnits="userSpaceOnUse">
<stop stop-color="#29265B"/>
<stop offset="0.564301" stop-color="#613185"/>
<stop offset="1" stop-color="#613185"/>
</linearGradient>
<linearGradient id="paint1_linear_0_1" x1="7.63576" y1="14.23" x2="17.7971" y2="14.23" gradientUnits="userSpaceOnUse">
<stop stop-color="#1B7BB2"/>
<stop offset="0.749216" stop-color="#613185"/>
<stop offset="1" stop-color="#613185"/>
</linearGradient>
<linearGradient id="paint2_linear_0_1" x1="14.4676" y1="14.9616" x2="23.9552" y2="14.9616" gradientUnits="userSpaceOnUse">
<stop stop-color="#613185"/>
<stop offset="0.111323" stop-color="#613185"/>
<stop offset="1" stop-color="#F5B712"/>
</linearGradient>
<clipPath id="clip0_0_1">
<rect width="128.361" height="43.6737" fill="white"/>
</clipPath>
</defs>
</svg>
