<svg width="1076" height="266" viewBox="0 0 1076 266" fill="none" xmlns="http://www.w3.org/2000/svg">
<mask id="mask0_11_378" style="mask-type:luminance" maskUnits="userSpaceOnUse" x="0" y="0" width="1091" height="266">
<path d="M1090.32 0.050293H0.540001V265.42H1090.32V0.050293Z" fill="white"/>
</mask>
<g mask="url(#mask0_11_378)">
<path d="M52.37 193.95H62.76C83.13 196.5 112.46 202.55 131.03 216.95C161.82 240.77 204.47 254.79 235.63 239.37C266.79 223.95 276.63 201.53 305.98 211.37C330.82 219.66 352.16 200.22 358.17 194H1055.98V-337.1H1029.98C1009.61 -339.38 977.89 -345.27 958.23 -360.49C927.44 -384.32 884.79 -398.34 853.63 -382.92C822.47 -367.5 812.63 -345.07 783.28 -354.92C757.85 -363.41 736.09 -342.84 730.69 -337.14H52.37V193.91V193.95Z" fill="#CA005D"/>
</g>
</svg>
