<svg width="1056" height="338" viewBox="0 0 1056 338" fill="none" xmlns="http://www.w3.org/2000/svg">
<mask id="mask0_11_388" style="mask-type:luminance" maskUnits="userSpaceOnUse" x="0" y="0" width="1091" height="338">
<path d="M1090.32 0.650391H0.540001V337.31H1090.32V0.650391Z" fill="white"/>
</mask>
<g mask="url(#mask0_11_388)">
<path d="M52.37 265.841H62.76C83.13 268.391 112.46 274.451 131.03 288.841C161.82 312.671 204.47 326.69 235.63 311.27C266.79 295.85 276.63 273.42 305.98 283.27C330.82 291.56 352.16 272.11 358.17 265.89H1055.98V-265.11H1029.98C1009.61 -267.39 977.89 -273.29 958.23 -288.5C927.44 -312.33 884.79 -326.349 853.63 -310.929C822.47 -295.509 812.63 -273.089 783.28 -282.929C757.85 -291.419 736.09 -270.839 730.69 -265.139H52.37V265.861V265.841Z" fill="#5F6BE4"/>
</g>
</svg>
