<svg width="41" height="40" viewBox="0 0 41 40" fill="none" xmlns="http://www.w3.org/2000/svg">
<mask id="mask0_11_406" style="mask-type:luminance" maskUnits="userSpaceOnUse" x="0" y="0" width="41" height="40">
<path d="M40.3 0.0600586H0.75V39.6101H40.3V0.0600586Z" fill="white"/>
</mask>
<g mask="url(#mask0_11_406)">
<path d="M40.3 19.8401C40.3 23.7522 39.1399 27.5764 36.9665 30.8292C34.793 34.082 31.7038 36.6173 28.0895 38.1144C24.4752 39.6115 20.4981 40.0032 16.6611 39.24C12.8242 38.4768 9.29971 36.5929 6.53343 33.8266C3.76714 31.0604 1.88328 27.5359 1.12007 23.6989C0.356851 19.862 0.74856 15.8849 2.24566 12.2706C3.74276 8.65626 6.27801 5.56704 9.53082 3.39359C12.7836 1.22013 16.6079 0.0600586 20.52 0.0600586C25.766 0.0600586 30.7971 2.14402 34.5066 5.85349C38.216 9.56295 40.3 14.5941 40.3 19.8401Z" fill="#CA155D"/>
<path d="M28.22 10.68V10.31H23.16L24.16 10.98C24.4399 11.1302 24.678 11.3479 24.8526 11.6133C25.0272 11.8787 25.1329 12.1835 25.16 12.5H25.52V12.14H16.37V12.5H16.73C16.7589 12.184 16.8652 11.8799 17.0396 11.6148C17.2141 11.3496 17.4512 11.1316 17.73 10.98L18.73 10.31H13.64C13.0592 10.31 12.5021 10.5407 12.0914 10.9514C11.6807 11.3621 11.45 11.9192 11.45 12.5V29.77C11.4526 30.3491 11.6845 30.9036 12.095 31.3121C12.5054 31.7207 13.0609 31.95 13.64 31.95H28.22C28.7991 31.95 29.3546 31.7207 29.765 31.3121C30.1755 30.9036 30.4074 30.3491 30.41 29.77V12.45C30.4074 11.87 30.1758 11.3145 29.7657 10.9044C29.3555 10.4942 28.8 10.2626 28.22 10.26V10.99C28.6072 10.99 28.9786 11.1438 29.2524 11.4176C29.5262 11.6914 29.68 12.0628 29.68 12.45V29.77C29.6774 30.1555 29.5224 30.5243 29.2489 30.7959C28.9753 31.0676 28.6055 31.22 28.22 31.22H13.64C13.4471 31.224 13.2553 31.1894 13.0759 31.1184C12.8965 31.0473 12.7331 30.9411 12.5952 30.8061C12.4574 30.671 12.3479 30.5098 12.2732 30.3319C12.1984 30.154 12.16 29.963 12.16 29.77V12.45C12.16 12.0628 12.3138 11.6914 12.5876 11.4176C12.8614 11.1438 13.2328 10.99 13.62 10.99H17.51V10.68L17.31 10.37C16.9313 10.5886 16.6126 10.8975 16.3823 11.2691C16.152 11.6408 16.0172 12.0636 15.99 12.5V12.86H25.83V12.5C25.8026 12.0625 25.6667 11.6386 25.4345 11.2668C25.2023 10.8949 24.8811 10.5867 24.5 10.37L24.3 10.68V11.04H28.2L28.22 10.68Z" fill="white"/>
<path d="M22.73 9.93997H23.09V9.70997C23.1103 9.4106 23.0688 9.11026 22.9682 8.82759C22.8675 8.54491 22.7099 8.28593 22.505 8.06671C22.3001 7.84749 22.0524 7.67272 21.7771 7.55322C21.5019 7.43373 21.2051 7.37207 20.905 7.37207C20.6049 7.37207 20.3081 7.43373 20.0329 7.55322C19.7576 7.67272 19.5099 7.84749 19.305 8.06671C19.1001 8.28593 18.9425 8.54491 18.8418 8.82759C18.7412 9.11026 18.6997 9.4106 18.72 9.70997V9.95997H19.09L19 9.60997C18.2247 9.79421 17.5047 10.1611 16.9 10.68C16.6327 10.8977 16.415 11.1701 16.2615 11.4788C16.108 11.7875 16.0223 12.1254 16.01 12.47V12.84H25.85V12.47C25.8377 12.1254 25.752 11.7875 25.5985 11.4788C25.445 11.1701 25.2273 10.8977 24.96 10.68C24.3408 10.1599 23.6076 9.79334 22.82 9.60997L22.73 9.95997L22.64 10.31C23.3111 10.4706 23.9369 10.7818 24.47 11.22C24.6654 11.3646 24.8279 11.549 24.9469 11.761C25.0658 11.973 25.1384 12.2078 25.16 12.45H25.52V12.09H16.37V12.45H16.73C16.744 12.2075 16.8091 11.9708 16.9211 11.7554C17.0332 11.5399 17.1896 11.3506 17.38 11.2C17.9156 10.7598 18.5451 10.4485 19.22 10.29L19.52 10.21V9.67997C19.52 9.29276 19.6738 8.9214 19.9476 8.6476C20.2214 8.3738 20.5928 8.21997 20.98 8.21997C21.3672 8.21997 21.7386 8.3738 22.0124 8.6476C22.2862 8.9214 22.44 9.29276 22.44 9.67997V9.89997V10.21L22.75 10.29L22.73 9.93997Z" fill="white"/>
<path d="M18.32 20.4V20.04H15.48C15.3907 20.0324 15.3078 19.9908 15.2482 19.9238C15.1887 19.8568 15.1571 19.7696 15.16 19.68V16.84C15.16 16.7472 15.1969 16.6582 15.2625 16.5925C15.3282 16.5269 15.4172 16.49 15.51 16.49H16.33V16.13V15.76H15.51C15.2262 15.76 14.9541 15.8727 14.7534 16.0734C14.5527 16.2741 14.44 16.5462 14.44 16.83V19.68C14.44 19.9638 14.5527 20.236 14.7534 20.4366C14.9541 20.6373 15.2262 20.75 15.51 20.75H18.35C18.6286 20.7422 18.8931 20.626 19.0873 20.4262C19.2815 20.2264 19.3901 19.9587 19.39 19.68V18.86H19.03H18.66V19.68C18.66 19.7728 18.6231 19.8619 18.5575 19.9275C18.4918 19.9931 18.4028 20.03 18.31 20.03V20.76C18.4527 20.7613 18.5942 20.7344 18.7264 20.6807C18.8586 20.627 18.9788 20.5477 19.0802 20.4472C19.1815 20.3468 19.2619 20.2273 19.3168 20.0956C19.3717 19.9639 19.4 19.8227 19.4 19.68V18.51H18.66V19.68C18.66 19.7702 18.6242 19.8567 18.5604 19.9204C18.4967 19.9842 18.4102 20.02 18.32 20.02H15.48C15.3933 20.0149 15.3119 19.9768 15.2524 19.9136C15.1929 19.8504 15.1598 19.7668 15.16 19.68V16.84C15.16 16.7498 15.1958 16.6634 15.2596 16.5996C15.3233 16.5358 15.4098 16.5 15.5 16.5H16.66V15.76H15.48C15.1936 15.76 14.9189 15.8738 14.7163 16.0763C14.5138 16.2789 14.4 16.5536 14.4 16.84V19.68C14.4 19.8218 14.4279 19.9623 14.4822 20.0933C14.5365 20.2243 14.616 20.3434 14.7163 20.4437C14.8166 20.544 14.9357 20.6235 15.0667 20.6778C15.1977 20.7321 15.3382 20.76 15.48 20.76H18.32V20.4Z" fill="white"/>
</g>
<path d="M16.83 18.6099L17.1 18.3699V18.3599L17.09 18.3499L16.52 17.7799L16.26 18.0399L16.52 18.2999V18.2899L16.27 18.0299L16.01 18.2899L16.58 18.8599L16.83 19.1099L19.29 16.6599L19.03 16.3999L18.78 16.6599L19.04 16.4099L18.78 16.1499L16.58 18.3499L16.83 18.6099L17.1 18.3699L16.83 18.6099L17.09 18.8699L19.55 16.4099L19.29 16.1399L19.03 15.8799L16.83 18.0899L16.52 17.7799L16.27 17.5199L16 17.7799L15.75 18.0399L16.57 18.8699L16.83 18.6099L16.56 18.8599H16.57L16.82 19.1399L17.09 18.8699L16.83 18.6099Z" fill="white"/>
<path d="M21.51 16.6799V17.4199H27.45V17.0599V16.6799H21.51Z" fill="white"/>
<path d="M21.51 19.0801V19.8201H27.45V19.4601V19.0801H21.51Z" fill="white"/>
<mask id="mask1_11_406" style="mask-type:luminance" maskUnits="userSpaceOnUse" x="0" y="0" width="41" height="40">
<path d="M40.3 0.0600586H0.75V39.6101H40.3V0.0600586Z" fill="white"/>
</mask>
<g mask="url(#mask1_11_406)">
<path d="M18.32 27.9801V27.6201H15.48C15.3872 27.6201 15.2981 27.5832 15.2325 27.5176C15.1669 27.452 15.13 27.3629 15.13 27.2701V24.4301C15.13 24.3363 15.1665 24.2463 15.2319 24.179C15.2972 24.1118 15.3863 24.0727 15.48 24.0701H16.3V23.6801V23.3201H15.48C15.3391 23.3188 15.1994 23.3455 15.069 23.3988C14.9385 23.4521 14.82 23.5309 14.7204 23.6305C14.6208 23.7302 14.542 23.8486 14.4887 23.9791C14.4354 24.1095 14.4087 24.2492 14.41 24.3901V27.2301C14.41 27.5139 14.5227 27.7861 14.7234 27.9867C14.9241 28.1874 15.1962 28.3001 15.48 28.3001H18.32C18.6038 28.3001 18.8759 28.1874 19.0766 27.9867C19.2773 27.7861 19.39 27.5139 19.39 27.2301V26.4101H19.03H18.66V27.2301C18.66 27.3229 18.6231 27.412 18.5575 27.4776C18.4918 27.5432 18.4028 27.5801 18.31 27.5801V28.3101C18.5964 28.3101 18.8711 28.1963 19.0737 27.9938C19.2762 27.7913 19.39 27.5166 19.39 27.2301V26.0901H18.66V27.2701C18.66 27.3603 18.6242 27.4468 18.5604 27.5105C18.4967 27.5743 18.4102 27.6101 18.32 27.6101H15.48C15.3898 27.6101 15.3033 27.5743 15.2396 27.5105C15.1758 27.4468 15.14 27.3603 15.14 27.2701V24.4301C15.14 24.339 15.1755 24.2515 15.2389 24.1861C15.3024 24.1207 15.3889 24.0827 15.48 24.0801H16.66V23.3501H15.48C15.1936 23.3501 14.9189 23.4639 14.7163 23.6664C14.5138 23.869 14.4 24.1437 14.4 24.4301V27.2701C14.4 27.5565 14.5138 27.8313 14.7163 28.0338C14.9189 28.2363 15.1936 28.3501 15.48 28.3501H18.32V27.9801Z" fill="white"/>
</g>
<path d="M16.83 26.19L17.1 25.94H17.09L16.52 25.36L16.26 25.62L16.52 25.88V25.87L16.27 25.62L16.01 25.87L16.58 26.44L16.83 26.7L19.29 24.24L19.03 23.98L18.78 24.24V24.25L19.04 23.99L18.78 23.73L16.58 25.94L16.83 26.19L17.1 25.94L16.83 26.19L17.09 26.45L19.55 23.99L19.29 23.72L19.03 23.47L16.83 25.67L16.52 25.36L16.27 25.1L16 25.36L15.74 25.62L16.57 26.45L16.83 26.72L17.09 26.45L16.83 26.19Z" fill="white"/>
<path d="M21.51 24.3V25.04H27.45V24.68V24.31L21.51 24.3Z" fill="white"/>
<path d="M21.51 26.6799V27.4199H27.45V27.0599V26.6799H21.51Z" fill="white"/>
</svg>
