<svg width="34" height="33" viewBox="0 0 34 33" fill="none" xmlns="http://www.w3.org/2000/svg">
<mask id="mask0_11_274" style="mask-type:luminance" maskUnits="userSpaceOnUse" x="0" y="0" width="34" height="33">
<path d="M33.09 0.359863H0.959999V32.4899H33.09V0.359863Z" fill="white"/>
</mask>
<g mask="url(#mask0_11_274)">
<path d="M17.02 32.4799C20.1964 32.4799 23.3014 31.538 25.9425 29.7733C28.5835 28.0086 30.642 25.5003 31.8575 22.5658C33.073 19.6312 33.3911 16.402 32.7714 13.2867C32.1517 10.1714 30.6222 7.30977 28.3761 5.06374C26.1301 2.81771 23.2685 1.28814 20.1531 0.668458C17.0378 0.0487793 13.8087 0.366825 10.8741 1.58237C7.93952 2.79791 5.43129 4.85635 3.6666 7.49741C1.9019 10.1385 0.959999 13.2435 0.959999 16.4199C0.959999 20.6793 2.65203 24.7642 5.66386 27.776C8.6757 30.7878 12.7606 32.4799 17.02 32.4799Z" fill="#29235C"/>
<path d="M20.65 9.67993L13.4 16.9399L19.62 23.1599" stroke="white" stroke-width="5" stroke-linecap="round" stroke-linejoin="round"/>
</g>
</svg>
