<svg width="35" height="35" viewBox="0 0 35 35" fill="none" xmlns="http://www.w3.org/2000/svg">
<path d="M23.29 12.8203C23.0357 12.8263 22.7853 12.7561 22.5709 12.6191C22.3565 12.4822 22.1878 12.2846 22.0863 12.0513C21.9848 11.818 21.9551 11.5598 22.0011 11.3096C22.047 11.0593 22.1665 10.828 22.3442 10.646C22.522 10.464 22.75 10.3395 22.9991 10.2876C23.2481 10.2357 23.507 10.259 23.7427 10.355C23.9783 10.4509 24.18 10.6151 24.322 10.8262C24.464 11.0373 24.5399 11.2856 24.54 11.54C24.5427 11.8752 24.4128 12.1977 24.1786 12.4375C23.9445 12.6773 23.6251 12.815 23.29 12.8203ZM17.7 22.6802C16.6168 22.696 15.5535 22.3895 14.6451 21.7993C13.7368 21.2091 13.0245 20.3619 12.5989 19.3657C12.1734 18.3695 12.0538 17.2694 12.2553 16.2051C12.4569 15.1407 12.9705 14.1603 13.7308 13.3887C14.4911 12.6171 15.4638 12.0888 16.525 11.8716C17.5863 11.6543 18.6882 11.7577 19.6906 12.1685C20.6929 12.5793 21.5504 13.2792 22.154 14.1787C22.7575 15.0783 23.0799 16.1369 23.08 17.2202C23.0853 17.932 22.9503 18.6378 22.6828 19.2974C22.4153 19.957 22.0204 20.5574 21.5208 21.0645C21.0213 21.5715 20.4267 21.9752 19.7711 22.2524C19.1156 22.5297 18.4118 22.6749 17.7 22.6802ZM25.86 10.9399C25.6906 10.482 25.4246 10.0662 25.08 9.72021C24.7408 9.36968 24.3274 9.09967 23.87 8.93018C23.2505 8.69227 22.5936 8.56685 21.93 8.56006C20.83 8.51006 20.5 8.5 17.7 8.5C14.9 8.5 14.58 8.50006 13.48 8.56006C12.8132 8.56715 12.153 8.69254 11.53 8.93018C11.0756 9.09977 10.6654 9.36987 10.33 9.72021C9.9821 10.0635 9.71556 10.4801 9.55 10.9399C9.31075 11.5795 9.1888 12.2571 9.19 12.9399C9.14 14.0599 9.13 14.4002 9.13 17.2402C9.13 20.0802 9.13 20.42 9.19 21.54C9.18725 22.2231 9.30925 22.9008 9.55 23.54C9.71546 24.0029 9.9819 24.423 10.33 24.77C10.6654 25.1204 11.0756 25.3905 11.53 25.5601C12.153 25.7977 12.8132 25.9231 13.48 25.9302C14.58 25.9802 14.91 25.9902 17.7 25.9902C20.49 25.9902 20.83 25.9902 21.93 25.9302C22.5936 25.9234 23.2505 25.798 23.87 25.5601C24.3274 25.3906 24.7408 25.1206 25.08 24.77C25.4248 24.4204 25.6908 24.001 25.86 23.54C26.0904 22.898 26.2121 22.2221 26.22 21.54C26.27 20.42 26.28 20.0802 26.28 17.2402C26.28 14.4002 26.28 14.0599 26.22 12.9399C26.2106 12.258 26.089 11.5823 25.86 10.9399Z" fill="#FEAB11"/>
<path d="M17.7 13.6802C16.9954 13.6683 16.3033 13.8663 15.7116 14.249C15.12 14.6318 14.6557 15.1821 14.3778 15.8296C14.0998 16.4771 14.0209 17.1927 14.1511 17.8853C14.2812 18.5778 14.6145 19.2158 15.1085 19.7183C15.6025 20.2208 16.2348 20.5651 16.9251 20.7071C17.6153 20.849 18.3321 20.782 18.9843 20.5152C19.6365 20.2483 20.1945 19.7935 20.5873 19.2085C20.9801 18.6235 21.1899 17.9347 21.19 17.23C21.194 16.7677 21.1068 16.3095 20.9336 15.8809C20.7603 15.4523 20.5043 15.0621 20.1803 14.7324C19.8562 14.4028 19.4703 14.14 19.0448 13.9595C18.6192 13.779 18.1622 13.6841 17.7 13.6802Z" fill="#FEAB11"/>
<path d="M28.1 21.6C28.0859 22.4841 27.9236 23.3594 27.62 24.1898C27.3561 24.896 26.9434 25.5375 26.41 26.0702C25.8916 26.6117 25.2599 27.0317 24.56 27.3002C23.7472 27.6063 22.8883 27.7718 22.02 27.7899C20.9 27.8399 20.55 27.8602 17.7 27.8602C14.85 27.8602 14.51 27.8599 13.39 27.7899C12.5217 27.7718 11.6628 27.6063 10.85 27.3002C10.1532 27.0205 9.52178 26.6 8.99521 26.0648C8.46864 25.5296 8.05834 24.891 7.79001 24.1898C7.48241 23.3601 7.31676 22.4847 7.3 21.6C7.3 20.47 7.24001 20.1101 7.24001 17.2201C7.24001 14.3301 7.24 13.97 7.3 12.83C7.31769 11.9486 7.48333 11.0764 7.79001 10.2499C8.05834 9.54868 8.46864 8.91054 8.99521 8.37537C9.52178 7.8402 10.1532 7.41967 10.85 7.14002C11.6628 6.83387 12.5217 6.66843 13.39 6.65027C14.51 6.59027 14.86 6.57996 17.7 6.57996C20.54 6.57996 20.9 6.58027 22.02 6.65027C22.8883 6.66843 23.7472 6.83387 24.56 7.14002C25.2599 7.4085 25.8916 7.82853 26.41 8.37C26.9434 8.90272 27.3561 9.54375 27.62 10.2499C27.9227 11.0771 28.085 11.9492 28.1 12.83C28.16 13.97 28.17 14.3301 28.17 17.2201C28.17 20.1101 28.17 20.47 28.1 21.6ZM17.7 0.320192C14.3461 0.264617 11.0516 1.20824 8.23581 3.03113C5.42003 4.85402 3.21041 7.47376 1.88825 10.5565C0.566084 13.6393 0.191194 17.0457 0.811319 20.3422C1.43144 23.6387 3.01853 26.6762 5.3705 29.0678C7.72248 31.4593 10.7329 33.0967 14.0186 33.7719C17.3043 34.447 20.7166 34.1292 23.821 32.8588C26.9254 31.5883 29.5816 29.4225 31.4512 26.6376C33.3209 23.8526 34.3195 20.5744 34.32 17.2201C34.3546 12.7758 32.6236 8.49927 29.5073 5.33045C26.391 2.16163 22.1442 0.35981 17.7 0.320192Z" fill="#FEAB11"/>
</svg>
