<svg width="34" height="35" viewBox="0 0 34 35" fill="none" xmlns="http://www.w3.org/2000/svg">
<path d="M27.33 26.1703C27.33 26.3903 27.27 26.4501 27.06 26.4501C25.87 26.4501 24.69 26.4501 23.51 26.4501C23.3 26.4501 23.25 26.3898 23.26 26.1898V19.5199C23.2666 18.9641 23.2028 18.4098 23.07 17.87C22.9739 17.4243 22.7166 17.0297 22.3475 16.7621C21.9784 16.4945 21.5235 16.3731 21.07 16.4203C20.7701 16.4081 20.4709 16.4566 20.1904 16.5634C19.9099 16.6701 19.654 16.8325 19.4381 17.0409C19.2222 17.2493 19.0508 17.4997 18.9342 17.7762C18.8177 18.0528 18.7584 18.3502 18.76 18.6503C18.7216 18.9822 18.7016 19.3161 18.7 19.6503C18.7 21.8103 18.7 23.9703 18.7 26.1303C18.7 26.3503 18.64 26.41 18.43 26.41C17.24 26.41 16.05 26.41 14.85 26.41C14.66 26.41 14.61 26.36 14.61 26.16V13.33C14.61 13.12 14.68 13.0702 14.87 13.0702H18.27C18.47 13.0702 18.53 13.1402 18.52 13.3402C18.52 13.8502 18.52 14.34 18.52 14.87C18.79 14.56 19.02 14.2499 19.3 13.9799C19.7017 13.5769 20.1807 13.2594 20.7083 13.0463C21.2359 12.8332 21.8011 12.7292 22.37 12.7401C23.0211 12.7349 23.67 12.8153 24.3 12.9799C24.9642 13.1718 25.564 13.54 26.0358 14.0453C26.5076 14.5506 26.8339 15.1743 26.98 15.85C27.2493 16.9217 27.3705 18.0256 27.34 19.1303C27.34 21.4703 27.34 23.8003 27.34 26.1303M9.99 11.2802C9.51452 11.2861 9.04799 11.1506 8.64961 10.891C8.25123 10.6314 7.93896 10.2591 7.75241 9.82166C7.56587 9.38426 7.51346 8.90119 7.60184 8.43396C7.69023 7.96673 7.91541 7.53668 8.24882 7.19763C8.58224 6.85859 9.00886 6.62585 9.47455 6.52966C9.94024 6.43348 10.424 6.47791 10.8645 6.65711C11.3049 6.8363 11.6822 7.14252 11.9485 7.5365C12.2148 7.93048 12.358 8.39448 12.36 8.87C12.3627 9.50308 12.1151 10.1115 11.6712 10.5629C11.2273 11.0143 10.623 11.2722 9.99 11.2802ZM11.74 26.4501C10.56 26.4501 9.37 26.4501 8.19 26.4501C8 26.4501 7.95 26.4001 7.95 26.2001V13.35C7.95 13.18 7.95 13.1102 8.17 13.1102H11.77C12 13.1102 12.03 13.2003 12.03 13.4003V26.1503C12.03 26.3803 11.98 26.4501 11.74 26.4501ZM17.22 0.320192C13.8661 0.264617 10.5716 1.20824 7.75581 3.03113C4.94003 4.85402 2.7304 7.47376 1.40824 10.5565C0.0860784 13.6393 -0.288804 17.0457 0.331321 20.3422C0.951446 23.6387 2.53852 26.6762 4.89049 29.0678C7.24247 31.4593 10.2529 33.0967 13.5386 33.7719C16.8243 34.447 20.2366 34.1292 23.341 32.8588C26.4454 31.5883 29.1016 29.4225 30.9712 26.6376C32.8409 23.8526 33.8395 20.5744 33.84 17.2201C33.8746 12.7758 32.1436 8.49927 29.0273 5.33045C25.911 2.16163 21.6642 0.35981 17.22 0.320192Z" fill="#FEAB11"/>
</svg>
