<svg width="25" height="24" viewBox="0 0 25 24" fill="none" xmlns="http://www.w3.org/2000/svg">
<mask id="mask0_11_268" style="mask-type:luminance" maskUnits="userSpaceOnUse" x="0" y="0" width="25" height="24">
<path d="M24.37 0.0800781H0.699997V23.5601H24.37V0.0800781Z" fill="white"/>
</mask>
<g mask="url(#mask0_11_268)">
<path d="M24.37 11.8202C24.3898 14.1661 23.7123 16.465 22.4234 18.4252C21.1345 20.3854 19.2923 21.9185 17.1307 22.83C14.969 23.7415 12.5853 23.9902 10.282 23.5448C7.97876 23.0993 5.85974 21.9796 4.19386 20.3278C2.52799 18.676 1.39037 16.5665 0.925355 14.2671C0.460342 11.9677 0.688905 9.58192 1.58203 7.41261C2.47516 5.2433 3.99259 3.38822 5.94178 2.08275C7.89097 0.777277 10.184 0.0802683 12.53 0.0801846C14.0783 0.0736046 15.6127 0.372064 17.0457 0.958496C18.4786 1.54493 19.782 2.40785 20.8815 3.49802C21.9809 4.58818 22.8549 5.88423 23.4534 7.31215C24.052 8.74007 24.3635 10.2719 24.37 11.8202Z" fill="#5F6BE4"/>
<path d="M5.16 11.8201C5.28 11.6901 5.39 11.5501 5.52 11.4301L8.3 8.95009L10.42 7.06009L11.83 5.80008C12.0264 5.62369 12.281 5.52612 12.545 5.52612C12.809 5.52612 13.0636 5.62369 13.26 5.80008L15.4 7.71008C15.4 7.71008 15.4 7.71009 15.46 7.76009C15.4646 7.71019 15.4646 7.65997 15.46 7.61008V5.96008C15.46 5.65008 15.56 5.55008 15.84 5.55008H17.43C17.71 5.55008 17.8 5.65009 17.8 5.95009V9.72008C17.7976 9.76502 17.8053 9.80994 17.8226 9.85149C17.84 9.89303 17.8664 9.93014 17.9 9.96008L19.72 11.5701C19.7888 11.6456 19.8522 11.7258 19.91 11.8101V11.9901C19.72 12.2401 19.53 12.5001 19.33 12.7501C19.13 13.0001 19.02 12.9901 18.81 12.7501C18.26 12.2701 17.71 11.7501 17.17 11.2801L15.72 9.99008L14.23 8.68008L12.62 7.24008C12.611 7.22561 12.5985 7.21366 12.5836 7.20538C12.5688 7.1971 12.552 7.19276 12.535 7.19276C12.518 7.19276 12.5012 7.1971 12.4864 7.20538C12.4715 7.21366 12.459 7.22561 12.45 7.24008L10.98 8.56009L9.51001 9.87009L8.04 11.1801L6.39001 12.6801C6.33148 12.7419 6.26793 12.7988 6.2 12.8501C6.17214 12.8806 6.13738 12.9041 6.09862 12.9185C6.05986 12.933 6.01822 12.938 5.97715 12.9331C5.93608 12.9282 5.89677 12.9136 5.86248 12.8904C5.82819 12.8673 5.79992 12.8363 5.78001 12.8001C5.57001 12.5401 5.36 12.2601 5.15 11.9901L5.16 11.8201Z" fill="white"/>
<path d="M13.7 18.1003V14.3503H11.49C11.38 14.3503 11.36 14.3503 11.36 14.4903V18.1103H7.92001C7.82765 18.119 7.73453 18.1065 7.64773 18.0738C7.56093 18.0411 7.48273 17.989 7.41909 17.9215C7.35545 17.854 7.30805 17.7728 7.28048 17.6843C7.25291 17.5957 7.24591 17.502 7.26 17.4103V12.8803C7.25763 12.8305 7.2673 12.7809 7.28819 12.7356C7.30908 12.6904 7.34057 12.6508 7.38001 12.6203L9.81 10.4703L11.96 8.58031C12.1467 8.42031 12.3367 8.25031 12.53 8.07031L13.38 8.82031L15.84 11.0003L17.73 12.6703C17.752 12.6908 17.7695 12.7156 17.7816 12.7431C17.7936 12.7706 17.7999 12.8003 17.8 12.8303V17.4803C17.807 17.5614 17.7969 17.6431 17.7703 17.7201C17.7437 17.797 17.7012 17.8675 17.6455 17.9269C17.5899 17.9863 17.5223 18.0334 17.4473 18.065C17.3722 18.0966 17.2914 18.112 17.21 18.1103H13.7" fill="white"/>
</g>
</svg>
