<svg width="25" height="24" viewBox="0 0 25 24" fill="none" xmlns="http://www.w3.org/2000/svg">
<mask id="mask0_11_244" style="mask-type:luminance" maskUnits="userSpaceOnUse" x="0" y="0" width="25" height="24">
<path d="M24.54 0.0800781H0.869999V23.5601H24.54V0.0800781Z" fill="white"/>
</mask>
<g mask="url(#mask0_11_244)">
<path d="M24.54 11.8202C24.5598 14.1665 23.882 16.4658 22.5927 18.4262C21.3034 20.3866 19.4606 21.9197 17.2984 22.8309C15.1361 23.7421 12.7519 23.9903 10.4484 23.544C8.14479 23.0977 6.02578 21.977 4.36031 20.3242C2.69483 18.6714 1.558 16.561 1.09411 14.2609C0.63023 11.9608 0.860219 9.57478 1.75488 7.40565C2.64955 5.23651 4.16854 3.38211 6.11905 2.07784C8.06955 0.773575 10.3636 0.0782484 12.71 0.0801464C15.8352 0.0695155 18.8367 1.30012 21.055 3.50152C23.2733 5.70291 24.5268 8.69498 24.54 11.8202Z" fill="#5F6BE4"/>
<path d="M12.71 12.7403C12.1167 12.7403 11.5366 12.5643 11.0433 12.2347C10.5499 11.905 10.1654 11.4365 9.93836 10.8883C9.7113 10.3401 9.65189 9.73694 9.76764 9.155C9.8834 8.57306 10.1691 8.0385 10.5887 7.61894C11.0082 7.19939 11.5428 6.91367 12.1247 6.79792C12.7067 6.68216 13.3099 6.74157 13.8581 6.96863C14.4062 7.19569 14.8748 7.58022 15.2044 8.07357C15.5341 8.56691 15.71 9.14692 15.71 9.74027C15.71 10.5359 15.3939 11.299 14.8313 11.8616C14.2687 12.4242 13.5057 12.7403 12.71 12.7403ZM12.71 3.99027C11.0992 3.98495 9.55213 4.61906 8.40844 5.75337C7.26476 6.88769 6.61794 8.42949 6.61 10.0403C6.61 12.8803 11.04 18.0403 12.35 19.4903C12.3932 19.5426 12.4474 19.5848 12.5087 19.6138C12.5701 19.6427 12.6371 19.6577 12.705 19.6577C12.7729 19.6577 12.8399 19.6427 12.9013 19.6138C12.9626 19.5848 13.0168 19.5426 13.06 19.4903C14.37 18.0403 18.8 12.8803 18.8 10.0403C18.7974 9.24315 18.6378 8.45435 18.3303 7.71891C18.0228 6.98346 17.5735 6.31578 17.008 5.75399C16.4425 5.19219 15.7719 4.74728 15.0344 4.44466C14.297 4.14204 13.5071 3.98764 12.71 3.99027Z" fill="white"/>
</g>
</svg>
