<svg width="24" height="24" viewBox="0 0 24 24" fill="none" xmlns="http://www.w3.org/2000/svg">
<mask id="mask0_11_261" style="mask-type:luminance" maskUnits="userSpaceOnUse" x="0" y="0" width="24" height="24">
<path d="M23.95 0.0800781H0.280003V23.5601H23.95V0.0800781Z" fill="white"/>
</mask>
<g mask="url(#mask0_11_261)">
<path d="M23.95 11.8202C23.9698 14.1682 23.291 16.4691 21.9999 18.4304C20.7088 20.3916 18.8637 21.9247 16.6991 22.8347C14.5345 23.7448 12.1482 23.9906 9.84357 23.5411C7.53891 23.0915 5.41996 21.9668 3.75608 20.31C2.0922 18.6532 0.958535 16.539 0.499185 14.2363C0.0398348 11.9336 0.275548 9.54627 1.17636 7.37784C2.07718 5.20941 3.60241 3.35778 5.55818 2.05835C7.51394 0.758916 9.81192 0.0703522 12.16 0.0801845C13.7078 0.0736059 15.2418 0.372125 16.6741 0.958679C18.1065 1.54523 19.4093 2.40833 20.5079 3.49863C21.6066 4.58892 22.4796 5.88503 23.0771 7.3129C23.6745 8.74076 23.9848 10.2724 23.99 11.8202" fill="#5F6BE4"/>
<path d="M14.6 6.48019C14.606 7.00357 14.4562 7.51691 14.1697 7.95499C13.8833 8.39306 13.4731 8.7361 12.9913 8.94052C12.5094 9.14494 11.9777 9.20152 11.4636 9.10307C10.9495 9.00462 10.4763 8.75558 10.1041 8.38759C9.7319 8.0196 9.47746 7.54927 9.37314 7.03636C9.26882 6.52345 9.31933 5.99111 9.51823 5.50696C9.71713 5.02281 10.0555 4.60871 10.4902 4.31728C10.925 4.02584 11.4366 3.87023 11.96 3.87019C12.3049 3.86756 12.6469 3.93305 12.9665 4.06291C13.286 4.19277 13.5768 4.38445 13.822 4.62694C14.0673 4.86943 14.2623 5.15797 14.3958 5.476C14.5293 5.79403 14.5987 6.13528 14.6 6.48019Z" fill="white"/>
<path d="M11.96 8.87028C11.4882 8.86633 11.0281 8.7228 10.6377 8.4578C10.2473 8.19279 9.94407 7.81816 9.76624 7.38111C9.58841 6.94406 9.54392 6.46416 9.63839 6.00187C9.73285 5.53958 9.96204 5.1156 10.2971 4.78335C10.6321 4.4511 11.058 4.22544 11.521 4.13483C11.9841 4.04422 12.4636 4.09271 12.8992 4.27418C13.3347 4.45564 13.7068 4.76197 13.9686 5.15456C14.2303 5.54715 14.37 6.00843 14.37 6.48028C14.3687 6.79545 14.3053 7.10727 14.1835 7.39795C14.0617 7.68863 13.8838 7.95248 13.66 8.17441C13.4362 8.39635 13.1709 8.57201 12.8792 8.69141C12.5875 8.81081 12.2752 8.87159 11.96 8.87028ZM11.96 4.01027C11.47 4.01423 10.9921 4.16329 10.5867 4.43863C10.1812 4.71398 9.86651 5.10324 9.68217 5.55732C9.49782 6.01139 9.45214 6.5099 9.55089 6.98992C9.64965 7.46993 9.8884 7.90994 10.237 8.25437C10.5856 8.5988 11.0285 8.83223 11.5097 8.92518C11.9908 9.01813 12.4887 8.96643 12.9406 8.77662C13.3924 8.58681 13.7778 8.26739 14.0483 7.85869C14.3187 7.44999 14.462 6.97034 14.46 6.48028C14.4547 5.82162 14.1887 5.1919 13.7201 4.72896C13.2516 4.26603 12.6187 4.00761 11.96 4.01027Z" fill="#5F6BE4"/>
<path d="M13.76 6.48021C13.76 6.83621 13.6544 7.18423 13.4567 7.48024C13.2589 7.77625 12.9777 8.00695 12.6488 8.14319C12.3199 8.27942 11.958 8.31507 11.6088 8.24562C11.2597 8.17616 10.9389 8.00474 10.6872 7.753C10.4355 7.50127 10.264 7.18054 10.1946 6.83137C10.1251 6.48221 10.1608 6.12029 10.297 5.79138C10.4333 5.46247 10.664 5.18135 10.96 4.98356C11.256 4.78578 11.604 4.6802 11.96 4.6802C12.1951 4.67889 12.4281 4.72388 12.6458 4.81262C12.8635 4.90136 13.0615 5.03211 13.2287 5.1974C13.3958 5.36269 13.5288 5.55928 13.6199 5.77595C13.7111 5.99262 13.7587 6.22514 13.76 6.4602" fill="#5F6BE4"/>
<path d="M16.46 9.56015L15.63 11.5601C15.5551 11.7357 15.427 11.8832 15.2637 11.9819C15.1004 12.0806 14.9102 12.1254 14.72 12.1101C14.4948 12.0811 14.2735 12.0275 14.06 11.9501C13.9046 11.8853 13.7597 11.7976 13.63 11.6901C13.5174 11.6056 13.4357 11.4864 13.3978 11.3508C13.3598 11.2152 13.3676 11.0708 13.42 10.9401C13.6523 10.3733 14.0917 9.9161 14.649 9.66162C15.2062 9.40714 15.8395 9.37443 16.42 9.57014" fill="white"/>
<path d="M10.35 19.7701H8.35001C8.2784 19.7701 8.20972 19.7416 8.15909 19.691C8.10845 19.6404 8.08 19.5717 8.08 19.5001V18.3501C8.08249 18.2793 8.11174 18.212 8.16184 18.1619C8.21195 18.1118 8.27919 18.0826 8.35001 18.0801H10.35C10.4226 18.08 10.4923 18.1082 10.5445 18.1585C10.5968 18.2089 10.6274 18.2776 10.63 18.3501V19.5001C10.63 19.5364 10.6227 19.5723 10.6085 19.6058C10.5943 19.6392 10.5736 19.6694 10.5474 19.6946C10.5213 19.7198 10.4903 19.7395 10.4564 19.7525C10.4225 19.7654 10.3863 19.7714 10.35 19.7701Z" fill="white"/>
<path d="M15.99 19.7701H13.99C13.9184 19.7701 13.8497 19.7416 13.7991 19.691C13.7485 19.6404 13.72 19.5717 13.72 19.5001V18.3501C13.7225 18.2793 13.7517 18.212 13.8018 18.1619C13.8519 18.1118 13.9192 18.0826 13.99 18.0801H15.99C16.0608 18.0826 16.1281 18.1118 16.1782 18.1619C16.2283 18.212 16.2575 18.2793 16.26 18.3501V19.5001C16.26 19.5717 16.2316 19.6404 16.1809 19.691C16.1303 19.7416 16.0616 19.7701 15.99 19.7701Z" fill="white"/>
<path d="M5.4 13.4501C5.46553 13.4939 5.52025 13.5521 5.56001 13.6201C5.56001 13.6201 5.56001 13.7101 5.56001 13.7501C5.58975 13.8342 5.58975 13.926 5.56001 14.0101C5.50989 14.1126 5.44958 14.2097 5.38001 14.3001C4.95001 14.0301 4.87001 13.2001 5.38001 13.4501M6.53001 14.3401C6.53001 14.5501 6.12001 14.9101 5.53001 14.4701C5.67571 14.3885 5.79137 14.2623 5.86 14.1101C5.90384 13.9919 5.91397 13.8639 5.88924 13.7403C5.86452 13.6167 5.80593 13.5023 5.72 13.4101C5.58708 13.2473 5.39798 13.1403 5.19 13.1101C4.6 13.1101 4.81 13.9901 5.19 14.3901V14.4501C5.06412 14.5656 4.91368 14.6511 4.75 14.7001C4.72199 14.7108 4.69814 14.7301 4.68194 14.7553C4.66574 14.7805 4.65805 14.8102 4.66 14.8401C4.65385 14.8562 4.65385 14.874 4.66 14.8901C4.73 14.8901 4.93 14.8901 5.27 14.5601C5.49269 14.783 5.78631 14.921 6.10001 14.9501C6.24584 14.9562 6.3886 14.9071 6.49982 14.8125C6.61103 14.718 6.68252 14.585 6.70001 14.4401L6.53001 14.3401Z" fill="white"/>
<path d="M17.83 15.7602V13.4402C17.83 13.3739 17.8563 13.3103 17.9032 13.2634C17.9501 13.2165 18.0137 13.1902 18.08 13.1902H18.71C18.9618 13.3288 19.1694 13.5355 19.3091 13.7867C19.4488 14.0378 19.515 14.3232 19.5 14.6102C19.5154 14.8959 19.4494 15.1801 19.3095 15.4298C19.1697 15.6794 18.9618 15.8842 18.71 16.0202H18.08C18.0468 16.0216 18.0136 16.0161 17.9827 16.0041C17.9517 15.992 17.9235 15.9737 17.9 15.9502C17.8568 15.9 17.8321 15.8364 17.83 15.7702" fill="white"/>
<path d="M18.53 14.6101C18.5276 15.16 18.4154 15.704 18.2 16.2101C17.6448 17.2804 16.7933 18.1683 15.747 18.7676C14.7008 19.367 13.5041 19.6525 12.3 19.5901C8.86 19.5901 6.08 17.3601 6.08 14.5901C6.09215 13.9391 6.24607 13.2985 6.53103 12.713C6.81599 12.1276 7.22515 11.6113 7.73 11.2001C9.01451 10.1401 10.6348 9.57278 12.3 9.60006C15.74 9.60006 18.53 11.8301 18.53 14.6001" fill="white"/>
<path d="M17.83 10.0003L16.83 11.9003C16.7377 12.0768 16.5895 12.2177 16.4085 12.301C16.2276 12.3842 16.0241 12.4051 15.83 12.3603C15.6071 12.3186 15.3914 12.2445 15.19 12.1403C15.0382 12.067 14.8996 11.969 14.78 11.8503C14.6748 11.7555 14.6039 11.6285 14.5786 11.4892C14.5533 11.3498 14.5749 11.206 14.64 11.0803C14.9253 10.5295 15.4112 10.1093 15.9974 9.90648C16.5836 9.70365 17.2253 9.73364 17.79 9.99027" fill="white"/>
<path d="M13.85 11.1602C13.2856 10.913 12.6762 10.7853 12.06 10.7853C11.4438 10.7853 10.8344 10.913 10.27 11.1602C10.2302 11.1775 10.1852 11.1782 10.1449 11.1623C10.1046 11.1463 10.0722 11.115 10.055 11.0753C10.0378 11.0355 10.037 10.9905 10.053 10.9501C10.0689 10.9098 10.1002 10.8775 10.14 10.8602C10.7462 10.5983 11.3996 10.4631 12.06 10.4631C12.7204 10.4631 13.3738 10.5983 13.98 10.8602C14.0233 10.878 14.058 10.912 14.0767 10.955C14.0953 10.9979 14.0965 11.0464 14.08 11.0903C14.057 11.1282 14.0209 11.1564 13.9784 11.1693C13.936 11.1822 13.8902 11.179 13.85 11.1602Z" fill="#5F6BE4"/>
<path d="M12.85 7.76012H11.07V7.44011C11.1892 7.39861 11.294 7.3238 11.372 7.22455C11.45 7.12529 11.4979 7.00576 11.51 6.88011C11.51 6.82011 11.51 6.78011 11.51 6.72011H11.16V6.33011H11.47C11.4597 6.22369 11.4597 6.11653 11.47 6.01012C11.4694 5.89797 11.4925 5.78696 11.5376 5.68429C11.5827 5.58162 11.6489 5.48959 11.7319 5.41415C11.8148 5.33872 11.9127 5.28156 12.0192 5.24641C12.1257 5.21126 12.2384 5.1989 12.35 5.21011C12.5083 5.20325 12.666 5.23409 12.81 5.30011L12.71 5.74011C12.6074 5.69023 12.4941 5.6662 12.38 5.67012C12.3306 5.66521 12.2808 5.6715 12.2342 5.68851C12.1876 5.70552 12.1454 5.73282 12.1108 5.76837C12.0763 5.80393 12.0501 5.84683 12.0344 5.89387C12.0187 5.94092 12.0137 5.9909 12.02 6.04011C12.0102 6.13653 12.0102 6.23369 12.02 6.33011H12.56V6.68011H12.07C12.0903 6.77234 12.0903 6.86789 12.07 6.96011C12.0264 7.06249 11.9616 7.1545 11.88 7.23012H12.88L12.85 7.76012ZM11.96 4.28012C11.5234 4.28408 11.0977 4.41729 10.7367 4.66296C10.3757 4.90863 10.0955 5.25574 9.93162 5.66048C9.76771 6.06521 9.72738 6.50943 9.81571 6.93707C9.90404 7.36471 10.1171 7.75661 10.4279 8.06328C10.7388 8.36995 11.1335 8.57765 11.5623 8.66019C11.9911 8.74272 12.4348 8.69638 12.8372 8.52701C13.2397 8.35763 13.583 8.07282 13.8238 7.70853C14.0645 7.34423 14.192 6.91678 14.19 6.48012C14.1887 6.18905 14.1299 5.9011 14.017 5.63281C13.9041 5.36453 13.7393 5.1212 13.5321 4.91678C13.3249 4.71236 13.0794 4.55088 12.8096 4.44162C12.5398 4.33236 12.2511 4.27748 11.96 4.28012Z" fill="white"/>
</g>
</svg>
