<svg width="35" height="35" viewBox="0 0 35 35" fill="none" xmlns="http://www.w3.org/2000/svg">
<path d="M17.07 0.320312C12.7972 0.333706 8.68608 1.95568 5.55508 4.86328C2.42409 7.77088 0.502841 11.7506 0.173779 16.0107C-0.155284 20.2709 1.13198 24.4991 3.77932 27.853C6.42666 31.207 10.2399 33.441 14.46 34.1104V22.2402H10.21V17.3203H14.46V13.5801C14.46 9.32008 16.96 6.95996 20.78 6.95996C22.0335 6.97872 23.2837 7.09271 24.52 7.30029V11.48H22.41C22.0481 11.4347 21.6806 11.4718 21.3348 11.5879C20.989 11.704 20.6738 11.8963 20.4125 12.1509C20.1512 12.4054 19.9506 12.7155 19.8256 13.0581C19.7005 13.4008 19.6542 13.7674 19.69 14.1304V17.3203H24.32L23.58 22.2402H19.69V34.1104C23.9109 33.4408 27.7248 31.2056 30.3721 27.8506C33.0195 24.4956 34.306 20.2668 33.9757 16.0059C33.6453 11.745 31.7222 7.76471 28.5893 4.85791C25.4564 1.95111 21.3437 0.331239 17.07 0.320312Z" fill="#FEAB11"/>
</svg>
