<svg width="33" height="33" viewBox="0 0 33 33" fill="none" xmlns="http://www.w3.org/2000/svg">
<mask id="mask0_11_280" style="mask-type:luminance" maskUnits="userSpaceOnUse" x="0" y="0" width="33" height="33">
<path d="M32.98 0.359863H0.850006V32.4899H32.98V0.359863Z" fill="white"/>
</mask>
<g mask="url(#mask0_11_280)">
<path d="M16.91 0.359863C13.7336 0.359863 10.6286 1.30177 7.98755 3.06647C5.3465 4.83116 3.28805 7.33939 2.0725 10.274C0.85696 13.2086 0.538915 16.4377 1.15859 19.553C1.77827 22.6683 3.30784 25.53 5.55387 27.776C7.7999 30.022 10.6615 31.5516 13.7769 32.1713C16.8922 32.791 20.1213 32.4729 23.0559 31.2574C25.9905 30.0418 28.4987 27.9834 30.2634 25.3423C32.0281 22.7013 32.97 19.5962 32.97 16.4199C32.97 12.1605 31.278 8.07557 28.2661 5.06374C25.2543 2.0519 21.1694 0.359863 16.91 0.359863Z" fill="#29235C"/>
<path d="M13.29 23.1599L20.54 15.9099L14.32 9.67993" stroke="white" stroke-width="5" stroke-linecap="round" stroke-linejoin="round"/>
</g>
</svg>
