<svg width="84" height="73" viewBox="0 0 84 73" fill="none" xmlns="http://www.w3.org/2000/svg">
<mask id="mask0_11_422" style="mask-type:luminance" maskUnits="userSpaceOnUse" x="0" y="0" width="84" height="73">
<path d="M83.43 0.5H0.789997V72.7201H83.43V0.5Z" fill="white"/>
</mask>
<g mask="url(#mask0_11_422)">
<path d="M40.16 3.04004L0.789997 72.6801H22.38L53.93 16.8101C54.3181 16.1182 54.5218 15.3383 54.5218 14.545C54.5218 13.7518 54.3181 12.9719 53.93 12.28L48.73 3.04004C48.3045 2.27104 47.6808 1.63007 46.9238 1.18372C46.1667 0.737364 45.3039 0.501953 44.425 0.501953C43.5461 0.501953 42.6833 0.737364 41.9263 1.18372C41.1692 1.63007 40.5455 2.27104 40.12 3.04004" fill="white"/>
<path d="M19.23 40.04L37.63 72.6899L59.21 72.7L30.03 20.91L19.23 40.04Z" fill="white"/>
<mask id="mask1_11_422" style="mask-type:luminance" maskUnits="userSpaceOnUse" x="0" y="0" width="84" height="74">
<path d="M83.0008 0.132299L0.364323 0.896729L1.03237 73.1137L83.6688 72.3493L83.0008 0.132299Z" fill="white"/>
</mask>
<g mask="url(#mask1_11_422)">
<path d="M62.02 26.6101C57.1259 29.6677 52.0757 32.4681 46.89 35C46.7123 35.0845 46.5544 35.2055 46.4266 35.3551C46.2989 35.5047 46.204 35.6796 46.1484 35.8683C46.0927 36.057 46.0774 36.2553 46.1036 36.4503C46.1297 36.6453 46.1966 36.8326 46.3 37L66.74 72.5L77.53 72.4C78.6375 72.367 79.7173 72.0462 80.6631 71.469C81.6089 70.8918 82.3881 70.0782 82.924 69.1084C83.4598 68.1386 83.7339 67.046 83.7192 65.9381C83.7044 64.8302 83.4014 63.7453 82.84 62.79L66.16 33.8401L62.02 26.6101Z" fill="white"/>
</g>
</g>
</svg>
