<svg width="1016" height="177" viewBox="0 0 1016 177" fill="none" xmlns="http://www.w3.org/2000/svg">
<mask id="mask0_11_383" style="mask-type:luminance" maskUnits="userSpaceOnUse" x="0" y="0" width="1034" height="177">
<path d="M1033.69 0.17041H0.429993V176.39H1033.69V0.17041Z" fill="white"/>
</mask>
<g mask="url(#mask0_11_383)">
<path d="M1013 63.2803H1002.64C982.35 60.7403 953.12 54.7205 934.64 40.4205C903.96 16.7105 861.47 2.76016 830.42 18.1002C799.37 33.4402 789.61 55.7601 760.32 46.0001C735.57 37.7401 714.32 57.0903 708.32 63.2803H13V591.62H38.91C59.21 593.89 90.81 599.75 110.4 614.89C141.08 638.6 183.57 652.54 214.62 637.2C245.67 621.86 255.44 599.55 284.72 609.31C310.07 617.76 331.72 597.31 337.12 591.62H1013V63.2803Z" fill="#5F6BE4"/>
</g>
</svg>
