<svg width="1034" height="178" viewBox="0 0 1034 178" fill="none" xmlns="http://www.w3.org/2000/svg">
<mask id="mask0_11_373" style="mask-type:luminance" maskUnits="userSpaceOnUse" x="0" y="0" width="1034" height="178">
<path d="M1033.69 0.870117H0.429996V177.09H1033.69V0.870117Z" fill="white"/>
</mask>
<g mask="url(#mask0_11_373)">
<path d="M1013 63.9701H1002.64C982.35 61.4401 953.12 55.4102 934.64 41.1102C903.96 17.4102 861.47 3.46016 830.42 18.8002C799.37 34.1402 789.61 56.4498 760.32 46.6898C735.57 38.4398 714.32 57.7901 708.32 63.9701H13V592.32H38.91C59.21 594.58 90.81 600.45 110.4 615.59C141.08 639.29 183.57 653.24 214.62 637.9C245.67 622.56 255.44 600.25 284.72 610.01C310.07 618.46 331.72 598.01 337.12 592.32H1013V63.9701Z" fill="#CA005D"/>
</g>
</svg>
