<svg width="324" height="11" viewBox="0 0 324 11" fill="none" xmlns="http://www.w3.org/2000/svg">
<mask id="mask0_11_407" style="mask-type:luminance" maskUnits="userSpaceOnUse" x="0" y="0" width="324" height="11">
<path d="M323.17 0.340088H0.889999V10.2401H323.17V0.340088Z" fill="white"/>
</mask>
<g mask="url(#mask0_11_407)">
<path d="M3.16 8.37999C12.82 9.04666 22.4867 9.54666 32.16 9.87999C38.01 10.07 43.87 10.2 49.73 10.23C58.17 10.23 66.6 10.06 75.03 9.84999C82.31 9.67999 89.6 9.55 96.88 9.4C102.707 9.28 108.537 9.14667 114.37 9C121.09 8.84 127.82 8.72999 134.54 8.51999C149.98 8.03999 165.43 7.58 180.89 7.14C187.03 6.97 193.17 6.86 199.31 6.75L212.7 6.53C214.7 6.53 216.7 6.53 218.76 6.53H233.53C235.67 6.53 237.81 6.53 239.95 6.59C247.07 6.79 254.19 6.94999 261.3 7.21999C269.08 7.51332 276.87 7.71333 284.67 7.81999C291.45 7.91999 298.24 7.97999 305.02 7.87999C310.02 7.80999 315.02 7.66999 319.97 7.15999C316.69 6.81999 313.43 6.43999 310.15 6.15999H310.43C303.23 5.43999 295.99 4.88999 288.74 4.41999C283.113 4.04666 277.48 3.71333 271.84 3.41999L278.12 3.15C281.12 3.01 284.06 2.85 287.03 2.72C290.82 2.56 294.61 2.33 298.4 2.15C305.26 1.83 312.12 1.41 318.96 0.839999C312.02 0.379999 305.02 0.379993 298.06 0.349993C290.67 0.299993 283.27 0.349994 275.88 0.459994C268.853 0.546661 261.82 0.699993 254.78 0.919993C248.49 1.10999 242.2 1.29999 235.9 1.44999L220.62 1.80999C218.14 1.86999 215.62 1.95999 213.18 1.98999C204.853 2.08333 196.52 2.18333 188.18 2.29C186.07 2.29 183.96 2.36 181.85 2.36H156.16C154.38 2.36 152.6 2.36 150.82 2.36L124.58 2.11C117.63 2.04 110.69 1.86999 103.75 1.74999C90.75 1.50999 77.7 1.23999 64.67 1.05999C57.7767 0.966659 50.8867 0.923329 44 0.929995H38.67C35.53 0.929995 32.3833 0.973326 29.23 1.05999C26.82 1.05999 24.41 1.18999 22 1.20999C13.91 1.26999 5.82 1.49999 -2.27 1.59999C-0.140004 1.84999 1.99 2.09 4.13 2.29L10.63 2.86C14.63 3.2 18.63 3.53333 22.63 3.86C23.37 3.86 24.12 3.94 24.87 3.98C27.01 4.09 29.14 4.18999 31.29 4.27999C36.0033 4.49999 40.7167 4.67666 45.43 4.80999C48.08 4.88999 50.74 4.93 53.43 4.97C40.43 5.43 27.43 6.26 14.43 7.37C10.6567 7.69 6.89 8.02333 3.13 8.37" fill="#FEAB11"/>
</g>
</svg>
